# xmcd CD database file
#
# Track frame offsets:
#	150
#	27330
#	51083
#	76757
#	102540
#	131294
#	149004
#	175521
#	203511
#	231286
#	261365
#
# Disc length: 3798 seconds
#
# Revision: 0
# Processed by: cddbd v1.5PL3 Copyright (c) Steve Scherf et al.
# Submitted via: CDex 1.50
#
DISCID=910ed40b
DTITLE=michal urbaniak - urbanator II
DYEAR=1900
DGENRE=Jazz
TTITLE0=urbanate the area no. 2
TTITLE1=basia
TTITLE2=new yorker
TTITLE3=magic
TTITLE4=urbal tea
TTITLE5=moody's mood for love
TTITLE6=anytime, anywhere
TTITLE7=mantra
TTITLE8=all blues
TTITLE9=hi ho silver
TTITLE10=polak
EXTD=
EXTT0=
EXTT1=
EXTT2=
EXTT3=
EXTT4=
EXTT5=
EXTT6=
EXTT7=
EXTT8=
EXTT9=
EXTT10=
PLAYORDER=
